#!OML:ASF F:\VICON\USERDATA\INSTALL\rory3\rory3.ASF
:FULLY-SPECIFIED
:DEGREES
261
root 6.61073 15.9259 -35.1756 24.364 -22.8795 -1.31564
lowerback -15.1052 -0.579662 -4.6646
upperback -6.88099 -0.226163 0.34246
thorax 1.18552 -0.0503303 2.9569
lowerneck -12.9131 -0.890854 0.141164
upperneck 41.7707 -2.84838 1.98231
head 17.6235 -1.03862 0.317429
rclavicle -1.4064e-014 9.54166e-015
rhumerus -55.2077 37.4353 -100.88
rradius 61.3461
rwrist -8.88823
rhand 11.7831 7.25686
rfingers 7.12502
rthumb 36.8156 -18.8551
lclavicle -1.4064e-014 9.54166e-015
lhumerus -55.9107 -42.0231 106.626
lradius 59.6352
lwrist 2.67239
lhand 5.08747 19.5043
lfingers 7.12502
lthumb 30.4534 47.0085
rfemur -28.1355 -22.1941 28.3475
rtibia 59.3179
rfoot 18.5052 -22.728
rtoes 27.3752
lfemur -41.7684 -0.463736 -30.1377
ltibia 42.791
lfoot -44.496 28.0258
ltoes 2.34503
262
root 6.60768 15.9205 -35.159 24.0721 -22.7822 -1.37136
lowerback -14.9711 -0.634102 -4.59836
upperback -6.75889 -0.310493 0.411672
thorax 1.2515 -0.0955931 2.97878
lowerneck -12.5767 -0.826383 0.181481
upperneck 41.7077 -2.73202 1.92233
head 17.4931 -0.998581 0.305322
rclavicle -4.8901e-014 5.1684e-015
rhumerus -55.4264 38.1514 -100.366
rradius 63.5718
rwrist -10.0742
rhand 14.5274 4.15375
rfingers 7.12502
rthumb 39.4066 -21.2486
lclavicle -4.8901e-014 5.1684e-015
lhumerus -56.2264 -42.556 106.095
lradius 61.9084
lwrist 3.19115
lhand 14.3185 19.5668
lfingers 7.12502
lthumb 39.2098 45.0264
rfemur -27.7172 -22.2282 28.0155
rtibia 59.463
rfoot 17.842 -22.8654
rtoes 27.9706
lfemur -41.3073 -0.928288 -29.9098
ltibia 42.7526
lfoot -44.8139 28.2505
ltoes 2.7459
263
root 6.59827 15.9248 -35.1681 24.222 -22.415 -1.40963
lowerback -14.8417 -0.813457 -4.73489
upperback -6.87819 -0.543475 0.574297
thorax 1.07701 -0.201169 3.19091
lowerneck -12.3498 -0.804468 0.19461
upperneck 41.7549 -2.65728 1.8051
head 17.4559 -0.985681 0.263886
rclavicle -4.86525e-014 -1.19271e-014
rhumerus -55.9191 38.8971 -99.8365
rradius 66.2086
rwrist -11.3663
rhand 12.1056 6.09522
rfingers 7.12502
rthumb 37.1206 -19.938
lclavicle -4.86525e-014 -1.19271e-014
lhumerus -56.7966 -43.8337 106.367
lradius 63.5915
lwrist 4.38818
lhand 7.6619 18.681
lfingers 7.12502
lthumb 32.9055 45.7011
rfemur -27.9809 -22.1384 28.1605
rtibia 59.6861
rfoot 17.5424 -23.53
rtoes 29.5085
lfemur -41.4621 -0.752715 -29.8038
ltibia 42.6995
lfoot -44.2323 28.1522
ltoes 2.22909
264
root 6.59838 15.9207 -35.1372 23.6015 -22.7889 -1.51346
lowerback -14.5357 -0.663774 -4.62021
upperback -6.62496 -0.366849 0.575589
thorax 1.16724 -0.120097 3.15476
lowerneck -12.1721 -0.791193 0.112279
upperneck 41.7433 -2.64272 1.87902
head 17.4053 -0.98552 0.316284
rclavicle 5.36967e-014 8.74653e-015
rhumerus -56.2335 39.6428 -99.2875
rradius 68.7157
rwrist -12.4685
rhand 14.4169 4.39395
rfingers 7.12502
rthumb 39.3025 -21.0388
lclavicle 5.36967e-014 8.74653e-015
lhumerus -57.2057 -45.2835 106.359
lradius 65.6903
lwrist 5.50802
lhand 16.2756 19.0289
lfingers 7.12502
lthumb 41.0509 43.9291
rfemur -27.1695 -21.8948 27.4614
rtibia 59.8937
rfoot 17.4929 -23.7144
rtoes 29.2332
lfemur -40.5269 -1.29622 -29.621
ltibia 42.632
lfoot -45.5664 28.2516
ltoes 3.35181
265
root 6.58828 15.9308 -35.1463 23.5757 -22.6844 -1.41933
lowerback -14.3626 -0.728141 -4.88319
upperback -6.57149 -0.423904 0.574534
thorax 1.13571 -0.143174 3.29394
lowerneck -12.0461 -0.814456 0.0501409
upperneck 41.6209 -2.7322 2.07037
head 17.3098 -1.00755 0.399651
rclavicle 2.96438e-014 2.0276e-014
rhumerus -56.1755 40.1486 -98.5239
rradius 71.0492
rwrist -13.3152
rhand 11.0107 7.08552
rfingers 7.12502
rthumb 36.0843 -19.2102
lclavicle 2.96438e-014 2.0276e-014
lhumerus -57.0005 -47.304 105.891
lradius 67.7806
lwrist 6.84219
lhand 15.6682 20.007
lfingers 7.12502
lthumb 40.4803 45.0864
rfemur -27.4158 -21.8029 27.3251
rtibia 60.237
rfoot 17.1136 -24.2356
rtoes 29.3312
lfemur -40.5104 -0.937334 -29.734
ltibia 42.5338
lfoot -45.1036 28.204
ltoes 2.56327
266
root 6.58984 15.931 -35.118 23.0904 -22.9562 -1.73032
lowerback -14.1344 -0.548407 -4.49685
upperback -6.19851 -0.233316 0.558115
thorax 1.39279 -0.0656311 3.08661
lowerneck -12.3747 -0.793141 0.277021
upperneck 41.6772 -2.72661 1.95373
head 17.4219 -0.980497 0.304366
rclavicle 1.87852e-014 1.47101e-014
rhumerus -55.9889 40.7713 -97.7469
rradius 73.4033
rwrist -14.3076
rhand 15.7072 3.12979
rfingers 7.12502
rthumb 40.517 -21.9382
lclavicle 1.87852e-014 1.47101e-014
lhumerus -57.6964 -47.6643 105.501
lradius 70.4068
lwrist 6.50267
lhand 12.7609 19.6208
lfingers 7.12502
lthumb 37.74 45.4903
rfemur -26.735 -21.6666 26.9236
rtibia 60.4887
rfoot 17.1069 -23.6388
rtoes 27.3239
lfemur -39.6633 -1.55904 -29.3023
ltibia 42.4666
lfoot -46.3415 28.4304
ltoes 3.62697
267
root 6.58265 15.9404 -35.1471 23.3936 -22.3041 -1.32786
lowerback -14.026 -0.904425 -4.99299
upperback -6.30371 -0.649779 0.586978
thorax 1.26024 -0.260198 3.33541
lowerneck -12.7317 -0.702524 0.555873
upperneck 41.7232 -2.60035 1.76676
head 17.5317 -0.90519 0.18851
rclavicle -1.86858e-014 -5.96354e-015
rhumerus -55.7021 41.4027 -96.8512
rradius 75.7673
rwrist -15.2056
rhand 16.9362 2.64807
rfingers 7.12502
rthumb 41.6709 -22.0513
lclavicle -1.86858e-014 -5.96354e-015
lhumerus -57.9919 -48.4251 104.927
lradius 72.8722
lwrist 6.86881
lhand 6.89745 18.2044
lfingers 7.12502
lthumb 32.1781 45.3745
rfemur -27.7085 -22.1495 27.0341
rtibia 60.9726
rfoot 16.8366 -23.0143
rtoes 24.493
lfemur -40.2239 -1.14361 -29.6623
ltibia 42.3957
lfoot -45.0362 28.065
ltoes 2.73259
